<?xml version="1.0" encoding="utf-8"?>
<!-- Generator: Adobe Illustrator 14.0.0, SVG Export Plug-In  -->
<!DOCTYPE svg PUBLIC "-//W3C//DTD SVG 1.1//EN" "http://www.w3.org/Graphics/SVG/1.1/DTD/svg11.dtd" [
	<!ENTITY ns_flows "http://ns.adobe.com/Flows/1.0/">
]>
<svg version="1.1"
	 xmlns="http://www.w3.org/2000/svg" xmlns:xlink="http://www.w3.org/1999/xlink" xmlns:a="http://ns.adobe.com/AdobeSVGViewerExtensions/3.0/"
	 x="0px" y="0px" width="338px" height="114px" viewBox="-12.504 -26.639 338 114" enable-background="new -12.504 -26.639 338 114"
	 xml:space="preserve">
<defs>
</defs>
<path fill-rule="evenodd" clip-rule="evenodd" fill="#FFFFFF" d="M46.475,44.066c0,1.693-0.606,3.284-1.819,4.774
	c-1.213,1.489-2.659,2.688-4.337,3.593c-1.679,0.906-3.112,1.358-4.299,1.358H0.229V31.366h10.508v13.478h19.19
	c2.048,0,3.575-0.571,4.582-1.713s1.51-2.584,1.51-4.328v-7.387c-0.034-1.083-0.293-2.034-0.775-2.855s-1.202-1.468-2.159-1.942
	c-0.957-0.474-2.129-0.711-3.518-0.711H0v-8.531h35.396c2.084,0,3.977,0.593,5.679,1.778s3.028,2.611,3.977,4.279
	c0.948,1.667,1.423,3.153,1.423,4.457V44.066z"/>
<path fill-rule="evenodd" clip-rule="evenodd" fill="#FFFFFF" d="M88.034,42.463c0-0.456-0.169-0.874-0.508-1.254
	s-0.758-0.684-1.257-0.913c-0.5-0.228-0.901-0.342-1.206-0.342H64.418c-0.948,0-1.608,0.321-1.98,0.963
	c-0.373,0.643-0.559,1.141-0.559,1.495c0,0.743,0.241,1.343,0.724,1.799s0.969,0.685,1.46,0.685h21.584
	c0.474,0,0.991-0.25,1.549-0.748C87.755,43.65,88.034,43.088,88.034,42.463z M101.041,53.792H90.117V51.25
	c-0.288,0.627-0.863,1.207-1.727,1.741c-0.864,0.534-1.643,0.8-2.336,0.8H56.465c-0.796,0-1.596-0.207-2.4-0.622
	c-0.804-0.415-1.46-0.995-1.968-1.74c-0.508-0.745-0.771-1.583-0.787-2.514c-0.017-1.794-0.038-4.063-0.063-6.807
	c-0.025-2.743-0.038-4.19-0.038-4.343c0-2.049,0.546-3.661,1.638-4.838s2.366-1.765,3.822-1.765h27.988
	c1.287,0,2.413,0.331,3.378,0.991c0.965,0.661,1.659,1.321,2.083,1.981v-3.312c0-0.691-0.208-1.395-0.622-2.112
	c-0.415-0.716-1.003-1.311-1.765-1.782c-0.762-0.472-1.651-0.708-2.667-0.708H51.564v-8.844h37.769c1.591,0,3.098,0.39,4.521,1.168
	c1.422,0.779,2.675,1.791,3.759,3.035c1.083,1.244,1.926,2.535,2.527,3.872c0.601,1.338,0.902,2.531,0.902,3.581V53.792z"/>
<path fill-rule="evenodd" clip-rule="evenodd" fill="#FFFFFF" d="M156.937,45.845c0,1.049-0.326,2.289-0.978,3.72
	s-1.71,2.684-3.174,3.759c-1.464,1.075-3.322,1.612-5.573,1.612c-2.319,0-4.038-0.317-5.155-0.952
	c-1.118-0.635-2.311-1.808-3.581-3.519l-17.685-21.339c-0.559-0.745-1.004-1.224-1.334-1.436c-0.33-0.211-0.741-0.317-1.232-0.317
	c-0.322,0-0.652,0.123-0.991,0.368c-0.338,0.246-0.508,0.589-0.508,1.029V53.74h-10.3V24.752c0-0.508,0.165-1.199,0.495-2.071
	c0.33-0.872,0.875-1.778,1.637-2.718c0.761-0.939,1.773-1.735,3.034-2.388s2.78-0.979,4.557-0.979c2.251,0,4.016,0.377,5.293,1.131
	c1.278,0.754,2.306,1.571,3.085,2.451l17.813,20.962c0.56,0.763,1.034,1.25,1.423,1.461c0.39,0.212,0.847,0.317,1.372,0.317
	c0.61,0,0.987-0.182,1.131-0.546c0.144-0.363,0.216-0.875,0.216-1.536v-23.46h10.456V45.845z"/>
<path fill-rule="evenodd" clip-rule="evenodd" fill="#FFFFFF" d="M213.947,45.845c0,1.049-0.325,2.289-0.978,3.72
	c-0.651,1.431-1.71,2.684-3.174,3.759s-3.322,1.612-5.573,1.612c-2.319,0-4.038-0.317-5.155-0.952
	c-1.117-0.635-2.311-1.808-3.58-3.519l-17.686-21.339c-0.559-0.745-1.004-1.224-1.334-1.436c-0.331-0.211-0.741-0.317-1.233-0.317
	c-0.322,0-0.652,0.123-0.991,0.368c-0.339,0.246-0.508,0.589-0.508,1.029V53.74h-10.3V24.752c0-0.508,0.165-1.199,0.495-2.071
	s0.876-1.778,1.637-2.718c0.762-0.939,1.773-1.735,3.034-2.388c1.261-0.652,2.78-0.979,4.557-0.979c2.251,0,4.015,0.377,5.293,1.131
	c1.277,0.754,2.306,1.571,3.085,2.451l17.813,20.962c0.56,0.763,1.033,1.25,1.423,1.461c0.39,0.212,0.848,0.317,1.372,0.317
	c0.61,0,0.987-0.182,1.132-0.546c0.144-0.363,0.216-0.875,0.216-1.536v-23.46h10.455V45.845z"/>
<path fill-rule="evenodd" clip-rule="evenodd" fill="#FFFFFF" d="M258.785,28.628c0-0.762-0.321-1.38-0.965-1.854
	c-0.643-0.475-1.362-0.711-2.158-0.711l-21.839-0.05c-0.931,0-1.773,0.406-2.526,1.219c-0.754,0.813-1.131,1.693-1.131,2.641v1.498
	h28.568L258.785,28.628z M269.035,33.981c0,1.625-0.433,2.992-1.297,4.101c-0.863,1.109-2.303,1.663-4.318,1.663l-33.254-0.05v1.779
	c0,0.915,0.352,1.767,1.055,2.554c0.703,0.788,1.461,1.182,2.273,1.182h34.981v8.583h-36.938c-2.455,0-4.581-0.647-6.376-1.942
	s-3.159-2.806-4.09-4.533c-0.932-1.727-1.397-3.14-1.397-4.24V27.28c0-1.219,0.334-2.425,1.003-3.619
	c0.669-1.194,1.554-2.273,2.655-3.238c1.101-0.964,2.257-1.722,3.467-2.272c1.211-0.55,2.333-0.825,3.366-0.825h30.181
	c0.863,0,1.829,0.267,2.896,0.8c1.067,0.533,2.032,1.197,2.896,1.993c0.863,0.795,1.563,1.642,2.096,2.539s0.8,1.744,0.801,2.539
	V33.981z"/>
<path fill-rule="evenodd" clip-rule="evenodd" fill="#FFFFFF" d="M314.503,53.792h-30.499c-1.639,0-3.232-0.58-4.779-1.739
	c-1.547-1.159-2.818-2.518-3.816-4.075c-0.997-1.558-1.496-2.793-1.496-3.707V17.377h10.092v21.863c0,1.219,0.335,2.286,1.004,3.2
	c0.67,0.914,1.457,1.604,2.364,2.069c0.906,0.466,1.656,0.698,2.249,0.698h24.882V53.792z"/>
<polygon fill-rule="evenodd" clip-rule="evenodd" fill="#FFFFFF" points="185.075,0.242 181.148,12.349 177.482,12.349 
	175.164,4.981 172.743,12.349 169.076,12.349 165.149,0.242 168.678,0.242 171.117,7.973 173.677,0.242 176.825,0.242 
	179.264,8.042 181.807,0.242 "/>
<polygon fill-rule="evenodd" clip-rule="evenodd" fill="#FFFFFF" points="196.271,9.703 196.271,12.349 186.55,12.349 186.55,0.242 
	196.046,0.242 196.046,2.888 189.94,2.888 189.94,4.929 195.319,4.929 195.319,7.489 189.94,7.489 189.94,9.703 "/>
<path fill-rule="evenodd" clip-rule="evenodd" fill="#FFFFFF" d="M204.42,9.876c1.199,0,1.799-0.409,1.799-1.228
	c0-0.818-0.6-1.228-1.799-1.228h-2.871v2.456H204.42z M201.549,2.715V5.05h2.353c1.153,0,1.729-0.392,1.729-1.176
	c0-0.772-0.576-1.159-1.729-1.159H201.549z M207.465,6.037c0.691,0.242,1.233,0.619,1.625,1.133
	c0.393,0.513,0.589,1.133,0.589,1.859c0,1.061-0.427,1.879-1.28,2.456c-0.854,0.576-2.087,0.864-3.701,0.864h-6.538V0.242h6.192
	c1.545,0,2.721,0.286,3.528,0.856c0.807,0.571,1.21,1.341,1.21,2.309c0,0.577-0.141,1.092-0.423,1.548
	C208.384,5.411,207.983,5.771,207.465,6.037z"/>
<path fill-rule="evenodd" clip-rule="evenodd" fill="#FFFFFF" d="M222.067,9.617c1.038,0,1.871-0.294,2.5-0.882
	c0.628-0.588,0.942-1.401,0.942-2.439c0-1.037-0.314-1.851-0.942-2.438c-0.629-0.588-1.462-0.882-2.5-0.882h-2.162v6.642H222.067z
	 M216.48,0.242h5.726c1.326,0,2.502,0.248,3.528,0.744s1.822,1.199,2.387,2.11c0.565,0.911,0.848,1.978,0.848,3.199
	c0,1.223-0.282,2.289-0.848,3.2c-0.564,0.911-1.36,1.614-2.387,2.11c-1.026,0.496-2.202,0.743-3.528,0.743h-5.726V0.242z"/>
<polygon fill-rule="evenodd" clip-rule="evenodd" fill="#FFFFFF" points="240.468,9.703 240.468,12.349 230.747,12.349 
	230.747,0.242 240.242,0.242 240.242,2.888 234.137,2.888 234.137,4.929 239.517,4.929 239.517,7.489 234.137,7.489 234.137,9.703 
	"/>
<path fill-rule="evenodd" clip-rule="evenodd" fill="#FFFFFF" d="M246.61,12.591c-0.979,0-1.931-0.121-2.854-0.363
	s-1.673-0.564-2.249-0.968l1.125-2.525c0.541,0.357,1.17,0.646,1.885,0.864c0.715,0.219,1.418,0.329,2.11,0.329
	c1.314,0,1.972-0.329,1.972-0.986c0-0.346-0.188-0.603-0.563-0.77c-0.374-0.167-0.977-0.343-1.807-0.527
	c-0.911-0.196-1.672-0.407-2.283-0.632c-0.611-0.225-1.137-0.585-1.574-1.081c-0.438-0.496-0.657-1.165-0.657-2.006
	c0-0.738,0.202-1.404,0.605-1.998s1.006-1.063,1.808-1.409C244.93,0.173,245.913,0,247.078,0c0.795,0,1.579,0.089,2.352,0.268
	c0.773,0.179,1.453,0.441,2.041,0.787l-1.055,2.542c-1.153-0.622-2.271-0.934-3.355-0.934c-0.681,0-1.177,0.101-1.488,0.303
	c-0.311,0.202-0.467,0.464-0.467,0.787c0,0.323,0.185,0.564,0.554,0.726s0.963,0.329,1.782,0.501
	c0.922,0.196,1.686,0.407,2.291,0.632c0.605,0.225,1.13,0.582,1.574,1.072c0.443,0.49,0.666,1.156,0.666,1.998
	c0,0.726-0.202,1.384-0.605,1.972c-0.403,0.588-1.009,1.058-1.816,1.41C248.744,12.416,247.764,12.591,246.61,12.591z"/>
<rect x="253.545" y="0.242" fill-rule="evenodd" clip-rule="evenodd" fill="#FFFFFF" width="3.425" height="12.107"/>
<path fill-rule="evenodd" clip-rule="evenodd" fill="#FFFFFF" d="M267.531,6.037h3.026v5.016c-0.691,0.496-1.487,0.876-2.387,1.142
	c-0.899,0.265-1.799,0.397-2.698,0.397c-1.269,0-2.41-0.268-3.425-0.804s-1.811-1.283-2.387-2.24
	c-0.577-0.957-0.865-2.041-0.865-3.252c0-1.21,0.288-2.294,0.865-3.251c0.576-0.958,1.378-1.704,2.404-2.24S264.25,0,265.542,0
	c1.13,0,2.145,0.19,3.044,0.571c0.899,0.38,1.649,0.928,2.249,1.643l-2.18,1.972c-0.818-0.899-1.799-1.349-2.94-1.349
	c-1.038,0-1.874,0.314-2.508,0.942c-0.635,0.629-0.951,1.468-0.951,2.517c0,0.669,0.144,1.266,0.432,1.791
	c0.289,0.525,0.692,0.934,1.211,1.228c0.52,0.294,1.113,0.441,1.781,0.441c0.658,0,1.274-0.132,1.852-0.398V6.037z"/>
<polygon fill-rule="evenodd" clip-rule="evenodd" fill="#FFFFFF" points="284.272,0.242 284.272,12.349 281.453,12.349 
	276.108,5.898 276.108,12.349 272.753,12.349 272.753,0.242 275.572,0.242 280.917,6.694 280.917,0.242 "/>
</svg>
